<svg width="250" height="250" viewBox="0 0 250 250" fill="none" xmlns="http://www.w3.org/2000/svg">
<rect x="74.8909" y="75.8909" width="5" height="5" transform="rotate(-45 74.8909 75.8909)" fill="black"/>
<rect x="71.3553" y="79.4264" width="5" height="5" transform="rotate(-45 71.3553 79.4264)" fill="black"/>
<rect x="71.3553" y="72.3553" width="5" height="5" transform="rotate(-45 71.3553 72.3553)" fill="black"/>
<rect x="67.8198" y="75.8909" width="5" height="5" transform="rotate(-45 67.8198 75.8909)" fill="black"/>
<rect x="67.8198" y="68.8198" width="5" height="5" transform="rotate(-45 67.8198 68.8198)" fill="black"/>
<rect x="64.2843" y="72.3553" width="5" height="5" transform="rotate(-45 64.2843 72.3553)" fill="black"/>
<rect x="64.2843" y="65.2843" width="5" height="5" transform="rotate(-45 64.2843 65.2843)" fill="#63E568"/>
<rect x="60.7487" y="68.8198" width="5" height="5" transform="rotate(-45 60.7487 68.8198)" fill="black"/>
<rect x="60.7487" y="61.7487" width="5" height="5" transform="rotate(-45 60.7487 61.7487)" fill="#63E568"/>
<rect x="57.2132" y="65.2843" width="5" height="5" transform="rotate(-45 57.2132 65.2843)" fill="#63E568"/>
<rect x="57.2132" y="58.2132" width="5" height="5" transform="rotate(-45 57.2132 58.2132)" fill="#63E568"/>
<rect x="53.6777" y="61.7487" width="5" height="5" transform="rotate(-45 53.6777 61.7487)" fill="#63E568"/>
<rect x="53.6777" y="54.6777" width="5" height="5" transform="rotate(-45 53.6777 54.6777)" fill="black"/>
<rect x="50.1421" y="58.2132" width="5" height="5" transform="rotate(-45 50.1421 58.2132)" fill="#63E568"/>
<rect x="50.1421" y="51.1421" width="5" height="5" transform="rotate(-45 50.1421 51.1421)" fill="black"/>
<rect x="46.6066" y="54.6777" width="5" height="5" transform="rotate(-45 46.6066 54.6777)" fill="black"/>
<rect x="46.6066" y="47.6066" width="5" height="5" transform="rotate(-45 46.6066 47.6066)" fill="black"/>
<rect x="43.0711" y="51.1421" width="5" height="5" transform="rotate(-45 43.0711 51.1421)" fill="#005804"/>
<rect x="43.0711" y="44.0711" width="5" height="5" transform="rotate(-45 43.0711 44.0711)" fill="#005804"/>
<rect x="39.5355" y="47.6066" width="5" height="5" transform="rotate(-45 39.5355 47.6066)" fill="#012F03"/>
<rect x="39.5355" y="40.5355" width="5" height="5" transform="rotate(-45 39.5355 40.5355)" fill="#012F03"/>
<rect x="36" y="44.0711" width="5" height="5" transform="rotate(-45 36 44.0711)" fill="#012F03"/>
<rect x="175.071" y="174.071" width="5" height="5" transform="rotate(135 175.071 174.071)" fill="black"/>
<rect x="178.607" y="170.536" width="5" height="5" transform="rotate(135 178.607 170.536)" fill="black"/>
<rect x="178.607" y="177.607" width="5" height="5" transform="rotate(135 178.607 177.607)" fill="black"/>
<rect x="182.142" y="174.071" width="5" height="5" transform="rotate(135 182.142 174.071)" fill="black"/>
<rect x="182.142" y="181.142" width="5" height="5" transform="rotate(135 182.142 181.142)" fill="black"/>
<rect x="185.678" y="177.607" width="5" height="5" transform="rotate(135 185.678 177.607)" fill="black"/>
<rect x="185.678" y="184.678" width="5" height="5" transform="rotate(135 185.678 184.678)" fill="#63E568"/>
<rect x="189.213" y="181.142" width="5" height="5" transform="rotate(135 189.213 181.142)" fill="black"/>
<rect x="189.213" y="188.213" width="5" height="5" transform="rotate(135 189.213 188.213)" fill="#63E568"/>
<rect x="192.749" y="184.678" width="5" height="5" transform="rotate(135 192.749 184.678)" fill="#63E568"/>
<rect x="192.749" y="191.749" width="5" height="5" transform="rotate(135 192.749 191.749)" fill="#63E568"/>
<rect x="196.284" y="188.213" width="5" height="5" transform="rotate(135 196.284 188.213)" fill="#63E568"/>
<rect x="196.284" y="195.284" width="5" height="5" transform="rotate(135 196.284 195.284)" fill="black"/>
<rect x="199.82" y="191.749" width="5" height="5" transform="rotate(135 199.82 191.749)" fill="#63E568"/>
<rect x="199.82" y="198.82" width="5" height="5" transform="rotate(135 199.82 198.82)" fill="black"/>
<rect x="203.355" y="195.284" width="5" height="5" transform="rotate(135 203.355 195.284)" fill="black"/>
<rect x="203.355" y="202.355" width="5" height="5" transform="rotate(135 203.355 202.355)" fill="black"/>
<rect x="206.891" y="198.82" width="5" height="5" transform="rotate(135 206.891 198.82)" fill="#005804"/>
<rect x="206.891" y="205.891" width="5" height="5" transform="rotate(135 206.891 205.891)" fill="#005804"/>
<rect x="210.426" y="202.355" width="5" height="5" transform="rotate(135 210.426 202.355)" fill="#012F03"/>
<rect x="210.426" y="209.426" width="5" height="5" transform="rotate(135 210.426 209.426)" fill="#012F03"/>
<rect x="213.962" y="205.891" width="5" height="5" transform="rotate(135 213.962 205.891)" fill="#012F03"/>
<rect x="175.071" y="75.8909" width="5" height="5" transform="rotate(45 175.071 75.8909)" fill="black"/>
<rect x="171.536" y="72.3553" width="5" height="5" transform="rotate(45 171.536 72.3553)" fill="black"/>
<rect x="178.607" y="72.3553" width="5" height="5" transform="rotate(45 178.607 72.3553)" fill="black"/>
<rect x="175.071" y="68.8198" width="5" height="5" transform="rotate(45 175.071 68.8198)" fill="black"/>
<rect x="182.142" y="68.8198" width="5" height="5" transform="rotate(45 182.142 68.8198)" fill="black"/>
<rect x="178.607" y="65.2843" width="5" height="5" transform="rotate(45 178.607 65.2843)" fill="black"/>
<rect x="185.678" y="65.2843" width="5" height="5" transform="rotate(45 185.678 65.2843)" fill="#63E568"/>
<rect x="182.142" y="61.7487" width="5" height="5" transform="rotate(45 182.142 61.7487)" fill="black"/>
<rect x="189.213" y="61.7487" width="5" height="5" transform="rotate(45 189.213 61.7487)" fill="#63E568"/>
<rect x="185.678" y="58.2132" width="5" height="5" transform="rotate(45 185.678 58.2132)" fill="#63E568"/>
<rect x="192.749" y="58.2132" width="5" height="5" transform="rotate(45 192.749 58.2132)" fill="#63E568"/>
<rect x="189.213" y="54.6777" width="5" height="5" transform="rotate(45 189.213 54.6777)" fill="#63E568"/>
<rect x="196.284" y="54.6777" width="5" height="5" transform="rotate(45 196.284 54.6777)" fill="black"/>
<rect x="192.749" y="51.1421" width="5" height="5" transform="rotate(45 192.749 51.1421)" fill="#63E568"/>
<rect x="199.82" y="51.1421" width="5" height="5" transform="rotate(45 199.82 51.1421)" fill="black"/>
<rect x="196.284" y="47.6066" width="5" height="5" transform="rotate(45 196.284 47.6066)" fill="black"/>
<rect x="203.355" y="47.6066" width="5" height="5" transform="rotate(45 203.355 47.6066)" fill="black"/>
<rect x="199.82" y="44.0711" width="5" height="5" transform="rotate(45 199.82 44.0711)" fill="#005804"/>
<rect x="206.891" y="44.0711" width="5" height="5" transform="rotate(45 206.891 44.0711)" fill="#005804"/>
<rect x="203.355" y="40.5355" width="5" height="5" transform="rotate(45 203.355 40.5355)" fill="#012F03"/>
<rect x="210.426" y="40.5355" width="5" height="5" transform="rotate(45 210.426 40.5355)" fill="#012F03"/>
<rect x="206.891" y="37" width="5" height="5" transform="rotate(45 206.891 37)" fill="#012F03"/>
<rect x="74.8909" y="174.071" width="5" height="5" transform="rotate(-135 74.8909 174.071)" fill="black"/>
<rect x="78.4264" y="177.607" width="5" height="5" transform="rotate(-135 78.4264 177.607)" fill="black"/>
<rect x="71.3553" y="177.607" width="5" height="5" transform="rotate(-135 71.3553 177.607)" fill="black"/>
<rect x="74.8909" y="181.142" width="5" height="5" transform="rotate(-135 74.8909 181.142)" fill="black"/>
<rect x="67.8198" y="181.142" width="5" height="5" transform="rotate(-135 67.8198 181.142)" fill="black"/>
<rect x="71.3553" y="184.678" width="5" height="5" transform="rotate(-135 71.3553 184.678)" fill="black"/>
<rect x="64.2843" y="184.678" width="5" height="5" transform="rotate(-135 64.2843 184.678)" fill="#63E568"/>
<rect x="67.8198" y="188.213" width="5" height="5" transform="rotate(-135 67.8198 188.213)" fill="black"/>
<rect x="60.7487" y="188.213" width="5" height="5" transform="rotate(-135 60.7487 188.213)" fill="#63E568"/>
<rect x="64.2843" y="191.749" width="5" height="5" transform="rotate(-135 64.2843 191.749)" fill="#63E568"/>
<rect x="57.2132" y="191.749" width="5" height="5" transform="rotate(-135 57.2132 191.749)" fill="#63E568"/>
<rect x="60.7487" y="195.284" width="5" height="5" transform="rotate(-135 60.7487 195.284)" fill="#63E568"/>
<rect x="53.6777" y="195.284" width="5" height="5" transform="rotate(-135 53.6777 195.284)" fill="black"/>
<rect x="57.2132" y="198.82" width="5" height="5" transform="rotate(-135 57.2132 198.82)" fill="#63E568"/>
<rect x="50.1421" y="198.82" width="5" height="5" transform="rotate(-135 50.1421 198.82)" fill="black"/>
<rect x="53.6777" y="202.355" width="5" height="5" transform="rotate(-135 53.6777 202.355)" fill="black"/>
<rect x="46.6066" y="202.355" width="5" height="5" transform="rotate(-135 46.6066 202.355)" fill="black"/>
<rect x="50.1421" y="205.891" width="5" height="5" transform="rotate(-135 50.1421 205.891)" fill="#005804"/>
<rect x="43.0711" y="205.891" width="5" height="5" transform="rotate(-135 43.0711 205.891)" fill="#005804"/>
<rect x="46.6066" y="209.426" width="5" height="5" transform="rotate(-135 46.6066 209.426)" fill="#012F03"/>
<rect x="39.5355" y="209.426" width="5" height="5" transform="rotate(-135 39.5355 209.426)" fill="#012F03"/>
<rect x="43.0711" y="212.962" width="5" height="5" transform="rotate(-135 43.0711 212.962)" fill="#012F03"/>
<rect x="55" y="125" width="5" height="5" transform="rotate(-90 55 125)" fill="black"/>
<rect x="55" y="130" width="5" height="5" transform="rotate(-90 55 130)" fill="black"/>
<rect x="50" y="125" width="5" height="5" transform="rotate(-90 50 125)" fill="black"/>
<rect x="50" y="130" width="5" height="5" transform="rotate(-90 50 130)" fill="black"/>
<rect x="45" y="125" width="5" height="5" transform="rotate(-90 45 125)" fill="black"/>
<rect x="45" y="130" width="5" height="5" transform="rotate(-90 45 130)" fill="black"/>
<rect x="40" y="125" width="5" height="5" transform="rotate(-90 40 125)" fill="#63E568"/>
<rect x="40" y="130" width="5" height="5" transform="rotate(-90 40 130)" fill="black"/>
<rect x="35" y="125" width="5" height="5" transform="rotate(-90 35 125)" fill="#63E568"/>
<rect x="35" y="130" width="5" height="5" transform="rotate(-90 35 130)" fill="#63E568"/>
<rect x="30" y="125" width="5" height="5" transform="rotate(-90 30 125)" fill="#63E568"/>
<rect x="30" y="130" width="5" height="5" transform="rotate(-90 30 130)" fill="#63E568"/>
<rect x="25" y="125" width="5" height="5" transform="rotate(-90 25 125)" fill="black"/>
<rect x="25" y="130" width="5" height="5" transform="rotate(-90 25 130)" fill="#63E568"/>
<rect x="20" y="125" width="5" height="5" transform="rotate(-90 20 125)" fill="black"/>
<rect x="20" y="130" width="5" height="5" transform="rotate(-90 20 130)" fill="black"/>
<rect x="15" y="125" width="5" height="5" transform="rotate(-90 15 125)" fill="black"/>
<rect x="15" y="130" width="5" height="5" transform="rotate(-90 15 130)" fill="#005804"/>
<rect x="10" y="125" width="5" height="5" transform="rotate(-90 10 125)" fill="#005804"/>
<rect x="10" y="130" width="5" height="5" transform="rotate(-90 10 130)" fill="#012F03"/>
<rect x="5" y="125" width="5" height="5" transform="rotate(-90 5 125)" fill="#012F03"/>
<rect x="5" y="130" width="5" height="5" transform="rotate(-90 5 130)" fill="#012F03"/>
<rect x="195" y="125" width="5" height="5" transform="rotate(90 195 125)" fill="black"/>
<rect x="195" y="120" width="5" height="5" transform="rotate(90 195 120)" fill="black"/>
<rect x="200" y="125" width="5" height="5" transform="rotate(90 200 125)" fill="black"/>
<rect x="200" y="120" width="5" height="5" transform="rotate(90 200 120)" fill="black"/>
<rect x="205" y="125" width="5" height="5" transform="rotate(90 205 125)" fill="black"/>
<rect x="205" y="120" width="5" height="5" transform="rotate(90 205 120)" fill="black"/>
<rect x="210" y="125" width="5" height="5" transform="rotate(90 210 125)" fill="#63E568"/>
<rect x="210" y="120" width="5" height="5" transform="rotate(90 210 120)" fill="black"/>
<rect x="215" y="125" width="5" height="5" transform="rotate(90 215 125)" fill="#63E568"/>
<rect x="215" y="120" width="5" height="5" transform="rotate(90 215 120)" fill="#63E568"/>
<rect x="220" y="125" width="5" height="5" transform="rotate(90 220 125)" fill="#63E568"/>
<rect x="220" y="120" width="5" height="5" transform="rotate(90 220 120)" fill="#63E568"/>
<rect x="225" y="125" width="5" height="5" transform="rotate(90 225 125)" fill="black"/>
<rect x="225" y="120" width="5" height="5" transform="rotate(90 225 120)" fill="#63E568"/>
<rect x="230" y="125" width="5" height="5" transform="rotate(90 230 125)" fill="black"/>
<rect x="230" y="120" width="5" height="5" transform="rotate(90 230 120)" fill="black"/>
<rect x="235" y="125" width="5" height="5" transform="rotate(90 235 125)" fill="black"/>
<rect x="235" y="120" width="5" height="5" transform="rotate(90 235 120)" fill="#005804"/>
<rect x="240" y="125" width="5" height="5" transform="rotate(90 240 125)" fill="#005804"/>
<rect x="240" y="120" width="5" height="5" transform="rotate(90 240 120)" fill="#012F03"/>
<rect x="245" y="125" width="5" height="5" transform="rotate(90 245 125)" fill="#012F03"/>
<rect x="245" y="120" width="5" height="5" transform="rotate(90 245 120)" fill="#012F03"/>
<rect x="125" y="55" width="5" height="5" fill="black"/>
<rect x="120" y="55" width="5" height="5" fill="black"/>
<rect x="125" y="50" width="5" height="5" fill="black"/>
<rect x="120" y="50" width="5" height="5" fill="black"/>
<rect x="125" y="45" width="5" height="5" fill="black"/>
<rect x="120" y="45" width="5" height="5" fill="black"/>
<rect x="125" y="40" width="5" height="5" fill="#63E568"/>
<rect x="120" y="40" width="5" height="5" fill="black"/>
<rect x="125" y="35" width="5" height="5" fill="#63E568"/>
<rect x="120" y="35" width="5" height="5" fill="#63E568"/>
<rect x="125" y="30" width="5" height="5" fill="#63E568"/>
<rect x="120" y="30" width="5" height="5" fill="#63E568"/>
<rect x="125" y="25" width="5" height="5" fill="black"/>
<rect x="120" y="25" width="5" height="5" fill="#63E568"/>
<rect x="125" y="20" width="5" height="5" fill="black"/>
<rect x="120" y="20" width="5" height="5" fill="black"/>
<rect x="125" y="15" width="5" height="5" fill="black"/>
<rect x="120" y="15" width="5" height="5" fill="#005804"/>
<rect x="125" y="10" width="5" height="5" fill="#005804"/>
<rect x="120" y="10" width="5" height="5" fill="#012F03"/>
<rect x="125" y="5" width="5" height="5" fill="#012F03"/>
<rect x="120" y="5" width="5" height="5" fill="#012F03"/>
<rect x="125" y="195" width="5" height="5" transform="rotate(-180 125 195)" fill="black"/>
<rect x="130" y="195" width="5" height="5" transform="rotate(-180 130 195)" fill="black"/>
<rect x="125" y="200" width="5" height="5" transform="rotate(-180 125 200)" fill="black"/>
<rect x="130" y="200" width="5" height="5" transform="rotate(-180 130 200)" fill="black"/>
<rect x="125" y="205" width="5" height="5" transform="rotate(-180 125 205)" fill="black"/>
<rect x="130" y="205" width="5" height="5" transform="rotate(-180 130 205)" fill="black"/>
<rect x="125" y="210" width="5" height="5" transform="rotate(-180 125 210)" fill="#63E568"/>
<rect x="130" y="210" width="5" height="5" transform="rotate(-180 130 210)" fill="black"/>
<rect x="125" y="215" width="5" height="5" transform="rotate(-180 125 215)" fill="#63E568"/>
<rect x="130" y="215" width="5" height="5" transform="rotate(-180 130 215)" fill="#63E568"/>
<rect x="125" y="220" width="5" height="5" transform="rotate(-180 125 220)" fill="#63E568"/>
<rect x="130" y="220" width="5" height="5" transform="rotate(-180 130 220)" fill="#63E568"/>
<rect x="125" y="225" width="5" height="5" transform="rotate(-180 125 225)" fill="black"/>
<rect x="130" y="225" width="5" height="5" transform="rotate(-180 130 225)" fill="#63E568"/>
<rect x="125" y="230" width="5" height="5" transform="rotate(-180 125 230)" fill="black"/>
<rect x="130" y="230" width="5" height="5" transform="rotate(-180 130 230)" fill="black"/>
<rect x="125" y="235" width="5" height="5" transform="rotate(-180 125 235)" fill="black"/>
<rect x="130" y="235" width="5" height="5" transform="rotate(-180 130 235)" fill="#005804"/>
<rect x="125" y="240" width="5" height="5" transform="rotate(-180 125 240)" fill="#005804"/>
<rect x="130" y="240" width="5" height="5" transform="rotate(-180 130 240)" fill="#012F03"/>
<rect x="125" y="245" width="5" height="5" transform="rotate(-180 125 245)" fill="#012F03"/>
<rect x="130" y="245" width="5" height="5" transform="rotate(-180 130 245)" fill="#012F03"/>
<path d="M100.566 89H94.3775V95.5638H100.566V89Z" fill="#002E02"/>
<path d="M112.944 89H100.566V95.5638H112.944V89Z" fill="#005804"/>
<path d="M119.132 89H112.943V95.5638H119.132V89Z" fill="#005804" fill-opacity="0.996"/>
<path d="M150.076 89H131.51V95.5638H150.076V89Z" fill="#005804"/>
<path d="M156.264 89H150.076V95.5638H156.264V89Z" fill="#002E02" fill-opacity="0.996"/>
<path d="M94.3774 95.5638H88.1887V102.128H94.3774V95.5638Z" fill="#002E02"/>
<path d="M112.944 95.5638H94.3775V102.128H112.944V95.5638Z" fill="#63E568"/>
<path d="M119.132 95.5638H112.943V102.128H119.132V95.5638Z" fill="#40BC46"/>
<path d="M131.51 95.5638H119.132V102.128H131.51V95.5638Z" fill="#005804"/>
<path d="M137.698 95.5638H131.51V102.128H137.698V95.5638Z" fill="#41BD47"/>
<path d="M156.265 95.5638H137.698V102.128H156.265V95.5638Z" fill="#63E568"/>
<path d="M162.453 95.5638H156.264V102.128H162.453V95.5638Z" fill="#002E02" fill-opacity="0.996"/>
<path d="M94.3774 102.128H88.1887V108.691H94.3774V102.128Z" fill="#005804"/>
<path d="M100.566 102.128H94.3775V108.691H100.566V102.128Z" fill="#63E568"/>
<path d="M112.944 102.128H100.566V108.691H112.944V102.128Z" fill="black"/>
<path d="M119.132 102.128H112.943V108.691H119.132V102.128Z" fill="#63E568"/>
<path d="M131.51 102.128H119.132V108.691H131.51V102.128Z" fill="#41BD47"/>
<path d="M137.698 102.128H131.51V108.691H137.698V102.128Z" fill="#63E568"/>
<path d="M150.076 102.128H137.698V108.691H150.076V102.128Z" fill="black"/>
<path d="M156.264 102.128H150.076V108.691H156.264V102.128Z" fill="#63E568"/>
<path d="M162.453 102.128H156.264V108.691H162.453V102.128Z" fill="#005804" fill-opacity="0.996"/>
<path d="M88.1887 108.691H82V115.255H88.1887V108.691Z" fill="#005804"/>
<path d="M94.3774 108.691H88.1887V115.255H94.3774V108.691Z" fill="#41BD47"/>
<path d="M100.566 108.691H94.3775V115.255H100.566V108.691Z" fill="#63E568"/>
<path d="M112.944 108.691H100.566V115.255H112.944V108.691Z" fill="black"/>
<path d="M131.51 108.691H112.943V115.255H131.51V108.691Z" fill="#64E669"/>
<path d="M137.698 108.691H131.51V115.255H137.698V108.691Z" fill="#63E568"/>
<path d="M150.076 108.691H137.698V115.255H150.076V108.691Z" fill="black"/>
<path d="M156.264 108.691H150.076V115.255H156.264V108.691Z" fill="#63E568"/>
<path d="M162.453 108.691H156.264V115.255H162.453V108.691Z" fill="#40BC46"/>
<path d="M168.642 108.691H162.453V115.255H168.642V108.691Z" fill="#005703" fill-opacity="0.996"/>
<path d="M88.1887 115.255H82V121.819H88.1887V115.255Z" fill="#002E02"/>
<path d="M106.755 115.255H88.1887V121.819H106.755V115.255Z" fill="#64E669"/>
<path d="M137.698 115.255H106.755V121.819H137.698V115.255Z" fill="#63E568"/>
<path d="M156.265 115.255H137.698V121.819H156.265V115.255Z" fill="#64E669"/>
<path d="M162.453 115.255H156.264V121.819H162.453V115.255Z" fill="#63E568"/>
<path d="M168.642 115.255H162.453V121.819H168.642V115.255Z" fill="#002E02"/>
<path d="M88.1887 121.819H82V128.383H88.1887V121.819Z" fill="#002E02"/>
<path d="M94.3774 121.819H88.1887V128.383H94.3774V121.819Z" fill="#63E568"/>
<path d="M106.755 121.819H94.3775V128.383H106.755V121.819Z" fill="#64E669"/>
<path d="M112.943 121.819H106.755V128.383H112.943V121.819Z" fill="#63E568"/>
<path d="M137.698 121.819H112.943V128.383H137.698V121.819Z" fill="black"/>
<path d="M150.076 121.819H137.698V128.383H150.076V121.819Z" fill="#64E669"/>
<path d="M162.453 121.819H150.076V128.383H162.453V121.819Z" fill="#63E568"/>
<path d="M168.642 121.819H162.453V128.383H168.642V121.819Z" fill="#002E02"/>
<path d="M88.1887 128.383H82V134.946H88.1887V128.383Z" fill="#002E02"/>
<path d="M94.3774 128.383H88.1887V134.946H94.3774V128.383Z" fill="#41BD47"/>
<path d="M150.076 128.383H94.3775V134.946H150.076V128.383Z" fill="#64E669"/>
<path d="M156.264 128.383H150.076V134.946H156.264V128.383Z" fill="#63E568"/>
<path d="M162.453 128.383H156.264V134.946H162.453V128.383Z" fill="#40BC46"/>
<path d="M168.642 128.383H162.453V134.946H168.642V128.383Z" fill="#002E02"/>
<path d="M88.1887 134.947H82V141.51H88.1887V134.947Z" fill="#002E02"/>
<path d="M94.3774 134.947H88.1887V141.51H94.3774V134.947Z" fill="#40BC46"/>
<path d="M100.566 134.947H94.3775V141.51H100.566V134.947Z" fill="#63E568"/>
<path d="M143.887 134.947H100.566V141.51H143.887V134.947Z" fill="#64E669"/>
<path d="M156.265 134.947H143.887V141.51H156.265V134.947Z" fill="#63E568"/>
<path d="M162.453 134.947H156.264V141.51H162.453V134.947Z" fill="#40BC46"/>
<path d="M168.642 134.947H162.453V141.51H168.642V134.947Z" fill="#002E02"/>
<path d="M94.3774 141.51H88.1887V148.074H94.3774V141.51Z" fill="#002E02"/>
<path d="M100.566 141.51H94.3775V148.074H100.566V141.51Z" fill="#41BD47"/>
<path d="M150.076 141.51H100.566V148.074H150.076V141.51Z" fill="#63E568"/>
<path d="M156.264 141.51H150.076V148.074H156.264V141.51Z" fill="#40BC46"/>
<path d="M162.453 141.51H156.264V148.074H162.453V141.51Z" fill="#002E02"/>
<path d="M106.755 148.074H94.3775V154.638H106.755V148.074Z" fill="#40BC46"/>
<path d="M112.943 148.074H106.755V154.638H112.943V148.074Z" fill="#005804"/>
<path d="M119.132 148.074H112.943V154.638H119.132V148.074Z" fill="#40BC46"/>
<path d="M125.321 148.074H119.132V154.638H125.321V148.074Z" fill="#41BD47"/>
<path d="M137.698 148.074H125.321V154.638H137.698V148.074Z" fill="#40BC46"/>
<path d="M143.887 148.074H137.698V154.638H143.887V148.074Z" fill="#005804"/>
<path d="M156.265 148.074H143.887V154.638H156.265V148.074Z" fill="#40BC46"/>
<path d="M106.755 154.638H100.566V161.202H106.755V154.638Z" fill="#002E02"/>
<path d="M112.943 154.638H106.755V161.202H112.943V154.638Z" fill="#002E02"/>
<path d="M119.132 154.638H112.943V161.202H119.132V154.638Z" fill="#002E02"/>
<path d="M131.51 154.638H119.132V161.202H131.51V154.638Z" fill="#002E02"/>
<path d="M137.698 154.638H131.51V161.202H137.698V154.638Z" fill="#002E02"/>
<path d="M143.887 154.638H137.698V161.202H143.887V154.638Z" fill="#002E02"/>
<path d="M150.076 154.638H143.887V161.202H150.076V154.638Z" fill="#002E02"/>
</svg>
